<?xml version="1.0" encoding="iso-8859-1"?>
<!-- Generator: Adobe Illustrator 19.0.0, SVG Export Plug-In . SVG Version: 6.00 Build 0)  -->
<svg version="1.1" id="Capa_1" xmlns="http://www.w3.org/2000/svg" xmlns:xlink="http://www.w3.org/1999/xlink" x="0px" y="0px"
	 viewBox="0 0 512 512" style="enable-background:new 0 0 512 512;" xml:space="preserve">
<g>
	<g>
		<g>
			<g>
				<path style="fill:#8A8895;" d="M488,20H24C10.766,20,0,30.766,0,44v424c0,13.234,10.766,24,24,24h464c13.234,0,24-10.766,24-24
					V44C512,30.766,501.234,20,488,20z"/>
			</g>
		</g>
	</g>
	<g>
		<g>
			<g>
				<path style="fill:#B8BAC0;" d="M488,20H24C10.766,20,0,30.766,0,44v424c0,13.234,10.766,24,24,24h464c13.234,0,24-10.766,24-24
					V44C512,30.766,501.234,20,488,20z M496,468c0,4.418-3.582,8-8,8H24c-4.418,0-8-3.582-8-8V92c0-4.418,3.582-8,8-8h464
					c4.418,0,8,3.582,8,8V468z"/>
			</g>
		</g>
	</g>
	<g>
		<g>
			<g>
				<path style="fill:#FF4F19;" d="M32,60c-2.164,0-4.164-0.883-5.68-2.32C24.875,56.156,24,54.078,24,52s0.875-4.164,2.32-5.68
					c2.961-2.961,8.398-2.961,11.359,0C39.117,47.836,40,49.922,40,52s-0.883,4.156-2.32,5.68C36.156,59.117,34.078,60,32,60z"/>
			</g>
		</g>
	</g>
	<g>
		<g>
			<g>
				<path style="fill:#FFD100;" d="M56,60c-2.078,0-4.164-0.883-5.68-2.32C48.875,56.156,48,54.156,48,52
					c0-2.078,0.875-4.164,2.32-5.68c2.961-2.961,8.398-2.961,11.359,0C63.117,47.836,64,49.922,64,52s-0.883,4.156-2.32,5.68
					C60.156,59.117,58.078,60,56,60z"/>
			</g>
		</g>
	</g>
	<g>
		<g>
			<g>
				<path style="fill:#00E58B;" d="M80,60c-2.078,0-4.164-0.883-5.68-2.32C72.875,56.156,72,54.078,72,52
					c0-2.164,0.875-4.242,2.32-5.68c3.039-2.961,8.32-2.961,11.359,0C87.117,47.758,88,49.836,88,52c0,2.078-0.883,4.156-2.32,5.68
					C84.156,59.117,82.078,60,80,60z"/>
			</g>
		</g>
	</g>
	<g>
		<g>
			<path style="fill:#FFFFFF;" d="M400,132H112c-13.234,0-24,10.766-24,24v256c0,13.234,10.766,24,24,24h288
				c13.234,0,24-10.766,24-24V156C424,142.766,413.234,132,400,132z"/>
		</g>
	</g>
	<g>
		<g>
			<path style="fill:#FFFFFF;" d="M64,316c-2.047,0-4.094-0.781-5.656-2.344l-24-24c-3.125-3.125-3.125-8.188,0-11.313l24-24
				c3.125-3.125,8.188-3.125,11.313,0s3.125,8.188,0,11.313L51.313,284l18.344,18.344c3.125,3.125,3.125,8.188,0,11.313
				C68.094,315.219,66.047,316,64,316z"/>
		</g>
	</g>
	<g>
		<g>
			<path style="fill:#FFFFFF;" d="M448,316c-2.047,0-4.094-0.781-5.656-2.344c-3.125-3.125-3.125-8.188,0-11.313L460.688,284
				l-18.344-18.344c-3.125-3.125-3.125-8.188,0-11.313s8.188-3.125,11.313,0l24,24c3.125,3.125,3.125,8.188,0,11.313l-24,24
				C452.094,315.219,450.047,316,448,316z"/>
		</g>
	</g>
	<g>
		<g>
			<path style="fill:#5C546A;" d="M376,188h-48c-4.422,0-8-3.578-8-8s3.578-8,8-8h48c4.422,0,8,3.578,8,8S380.422,188,376,188z"/>
		</g>
	</g>
	<g>
		<g>
			<path style="fill:#B8BAC0;" d="M344,268h-16c-4.422,0-8-3.578-8-8s3.578-8,8-8h16c4.422,0,8,3.578,8,8S348.422,268,344,268z"/>
		</g>
	</g>
	<g>
		<g>
			<path style="fill:#B8BAC0;" d="M344,300h-16c-4.422,0-8-3.578-8-8s3.578-8,8-8h16c4.422,0,8,3.578,8,8S348.422,300,344,300z"/>
		</g>
	</g>
	<g>
		<g>
			<path style="fill:#FF4F19;" d="M344,332h-16c-4.422,0-8-3.578-8-8s3.578-8,8-8h16c4.422,0,8,3.578,8,8S348.422,332,344,332z"/>
		</g>
	</g>
	<g>
		<g>
			<path style="fill:#5C546A;" d="M360,220h-32c-4.422,0-8-3.578-8-8s3.578-8,8-8h32c4.422,0,8,3.578,8,8S364.422,220,360,220z"/>
		</g>
	</g>
	<g>
		<g>
			<path style="fill:#8A8895;" d="M240,364h-96c-4.422,0-8-3.578-8-8s3.578-8,8-8h96c4.422,0,8,3.578,8,8S244.422,364,240,364z"/>
		</g>
	</g>
	<g>
		<g>
			<path style="fill:#8A8895;" d="M320,396H144c-4.422,0-8-3.578-8-8s3.578-8,8-8h176c4.422,0,8,3.578,8,8S324.422,396,320,396z"/>
		</g>
	</g>
	<g>
		<g>
			<path style="fill:#FF4F19;" d="M254.316,180l-11.155,0c-3.393,0-6.317,2.18-7.501,5.359C231.621,196.211,220.81,204,208,204
				c-12.81,0-23.621-7.789-27.66-18.641c-1.184-3.18-4.108-5.359-7.501-5.359h-11.155C143.081,180,128,194.327,128,212v16
				c0,4.418,3.582,8,8,8h24v80c0,4.418,3.582,8,8,8h80c4.418,0,8-3.582,8-8v-80h24c4.418,0,8-3.582,8-8v-16
				C288,194.327,272.919,180,254.316,180z"/>
		</g>
	</g>
	<g>
		<path style="fill:#E7001E;" d="M208,324V204c-12.81,0-23.621-7.789-27.66-18.641c-1.184-3.18-4.108-5.359-7.501-5.359h-11.155
			C143.081,180,128,194.327,128,212v16c0,4.418,3.582,8,8,8h24v80c0,4.418,3.582,8,8,8H208z"/>
	</g>
</g>
<g>
</g>
<g>
</g>
<g>
</g>
<g>
</g>
<g>
</g>
<g>
</g>
<g>
</g>
<g>
</g>
<g>
</g>
<g>
</g>
<g>
</g>
<g>
</g>
<g>
</g>
<g>
</g>
<g>
</g>
</svg>
