<?xml version="1.0" encoding="iso-8859-1"?>
<!-- Generator: Adobe Illustrator 19.0.0, SVG Export Plug-In . SVG Version: 6.00 Build 0)  -->
<svg version="1.1" id="Capa_1" xmlns="http://www.w3.org/2000/svg" xmlns:xlink="http://www.w3.org/1999/xlink" x="0px" y="0px"
	 viewBox="0 0 512 512" style="enable-background:new 0 0 512 512;" xml:space="preserve">
<g>
	<g>
		<path style="fill:#8A8895;" d="M472,56H40C17.945,56,0,73.945,0,96v320c0,22.055,17.945,40,40,40h432c22.055,0,40-17.945,40-40V96
			C512,73.945,494.055,56,472,56z"/>
	</g>
	<g>
		<path style="fill:#5C546A;" d="M472,56H40C17.945,56,0,73.945,0,96v96h512V96C512,73.945,494.055,56,472,56z"/>
	</g>
	<g>
		<path style="fill:#00E58B;" d="M440,160H72c-8.837,0-16-7.163-16-16v-32c0-8.837,7.163-16,16-16h368c8.837,0,16,7.163,16,16v32
			C456,152.837,448.837,160,440,160z"/>
	</g>
	<g>
		<g>
			<path style="fill:#5C546A;" d="M416,144c-4.422,0-8-3.582-8-8v-16c0-4.418,3.578-8,8-8s8,3.582,8,8v16
				C424,140.418,420.422,144,416,144z"/>
		</g>
	</g>
	<g>
		<g>
			<path style="fill:#5C546A;" d="M352,144c-4.422,0-8-3.582-8-8v-16c0-4.418,3.578-8,8-8s8,3.582,8,8v16
				C360,140.418,356.422,144,352,144z"/>
		</g>
	</g>
	<g>
		<g>
			<path style="fill:#5C546A;" d="M320,144c-4.422,0-8-3.582-8-8v-16c0-4.418,3.578-8,8-8s8,3.582,8,8v16
				C328,140.418,324.422,144,320,144z"/>
		</g>
	</g>
	<g>
		<g>
			<path style="fill:#5C546A;" d="M384,144c-4.422,0-8-3.582-8-8v-16c0-4.418,3.578-8,8-8s8,3.582,8,8v16
				C392,140.418,388.422,144,384,144z"/>
		</g>
	</g>
	<g>
		<path style="fill:#5C546A;" d="M128,280H72c-4.418,0-8-3.582-8-8v-32c0-4.418,3.582-8,8-8h56c4.418,0,8,3.582,8,8v32
			C136,276.418,132.418,280,128,280z"/>
	</g>
	<g>
		<path style="fill:#5C546A;" d="M216,280h-56c-4.418,0-8-3.582-8-8v-32c0-4.418,3.582-8,8-8h56c4.418,0,8,3.582,8,8v32
			C224,276.418,220.418,280,216,280z"/>
	</g>
	<g>
		<path style="fill:#5C546A;" d="M304,280h-56c-4.418,0-8-3.582-8-8v-32c0-4.418,3.582-8,8-8h56c4.418,0,8,3.582,8,8v32
			C312,276.418,308.418,280,304,280z"/>
	</g>
	<g>
		<path style="fill:#5C546A;" d="M128,344H72c-4.418,0-8-3.582-8-8v-32c0-4.418,3.582-8,8-8h56c4.418,0,8,3.582,8,8v32
			C136,340.418,132.418,344,128,344z"/>
	</g>
	<g>
		<path style="fill:#5C546A;" d="M216,344h-56c-4.418,0-8-3.582-8-8v-32c0-4.418,3.582-8,8-8h56c4.418,0,8,3.582,8,8v32
			C224,340.418,220.418,344,216,344z"/>
	</g>
	<g>
		<path style="fill:#5C546A;" d="M304,344h-56c-4.418,0-8-3.582-8-8v-32c0-4.418,3.582-8,8-8h56c4.418,0,8,3.582,8,8v32
			C312,340.418,308.418,344,304,344z"/>
	</g>
	<g>
		<path style="fill:#5C546A;" d="M128,408H72c-4.418,0-8-3.582-8-8v-32c0-4.418,3.582-8,8-8h56c4.418,0,8,3.582,8,8v32
			C136,404.418,132.418,408,128,408z"/>
	</g>
	<g>
		<path style="fill:#5C546A;" d="M216,408h-56c-4.418,0-8-3.582-8-8v-32c0-4.418,3.582-8,8-8h56c4.418,0,8,3.582,8,8v32
			C224,404.418,220.418,408,216,408z"/>
	</g>
	<g>
		<path style="fill:#5C546A;" d="M304,408h-56c-4.418,0-8-3.582-8-8v-32c0-4.418,3.582-8,8-8h56c4.418,0,8,3.582,8,8v32
			C312,404.418,308.418,408,304,408z"/>
	</g>
	<g>
		<path style="fill:#FF4F19;" d="M440,280h-56c-4.418,0-8-3.582-8-8v-32c0-4.418,3.582-8,8-8h56c4.418,0,8,3.582,8,8v32
			C448,276.418,444.418,280,440,280z"/>
	</g>
	<g>
		<path style="fill:#FF9500;" d="M440,344h-56c-4.418,0-8-3.582-8-8v-32c0-4.418,3.582-8,8-8h56c4.418,0,8,3.582,8,8v32
			C448,340.418,444.418,344,440,344z"/>
	</g>
	<g>
		<path style="fill:#FF9500;" d="M440,408h-56c-4.418,0-8-3.582-8-8v-32c0-4.418,3.582-8,8-8h56c4.418,0,8,3.582,8,8v32
			C448,404.418,444.418,408,440,408z"/>
	</g>
</g>
<g>
</g>
<g>
</g>
<g>
</g>
<g>
</g>
<g>
</g>
<g>
</g>
<g>
</g>
<g>
</g>
<g>
</g>
<g>
</g>
<g>
</g>
<g>
</g>
<g>
</g>
<g>
</g>
<g>
</g>
</svg>
