<?xml version="1.0" encoding="iso-8859-1"?>
<!-- Generator: Adobe Illustrator 19.0.0, SVG Export Plug-In . SVG Version: 6.00 Build 0)  -->
<svg version="1.1" id="Capa_1" xmlns="http://www.w3.org/2000/svg" xmlns:xlink="http://www.w3.org/1999/xlink" x="0px" y="0px"
	 viewBox="0 0 512 512" style="enable-background:new 0 0 512 512;" xml:space="preserve">
<g>
	<g>
		<path style="fill:#5D647F;" d="M472,72H40C17.945,72,0,89.945,0,112v288c0,22.055,17.945,40,40,40h432c22.055,0,40-17.945,40-40
			V112C512,89.945,494.055,72,472,72z"/>
	</g>
	<g>
		<g>
			<path style="fill:#5C546A;" d="M134,336H66c-1.105,0-2-0.895-2-2v-36c0-1.105,0.895-2,2-2h68c1.105,0,2,0.895,2,2v36
				C136,335.105,135.105,336,134,336z"/>
		</g>
		<g>
			<path style="fill:#5C546A;" d="M238,336h-68c-1.105,0-2-0.895-2-2v-36c0-1.105,0.895-2,2-2h68c1.105,0,2,0.895,2,2v36
				C240,335.105,239.105,336,238,336z"/>
		</g>
		<g>
			<path style="fill:#5C546A;" d="M342,336h-68c-1.105,0-2-0.895-2-2v-36c0-1.105,0.895-2,2-2h68c1.105,0,2,0.895,2,2v36
				C344,335.105,343.105,336,342,336z"/>
		</g>
		<g>
			<path style="fill:#5C546A;" d="M446,336h-68c-1.105,0-2-0.895-2-2v-36c0-1.105,0.895-2,2-2h68c1.105,0,2,0.895,2,2v36
				C448,335.105,447.105,336,446,336z"/>
		</g>
	</g>
	<g>
		<g>
			<path style="fill:#5C546A;" d="M280,384h160c4.422,0,8-3.582,8-8s-3.578-8-8-8H280c-4.422,0-8,3.582-8,8S275.578,384,280,384z"/>
		</g>
	</g>
	<g>
		<g>
			<path style="fill:#5C546A;" d="M176,384h72c4.422,0,8-3.582,8-8s-3.578-8-8-8h-72c-4.422,0-8,3.582-8,8S171.578,384,176,384z"/>
		</g>
	</g>
	<g>
		<path style="fill:#B8BAC0;" d="M432,264H80c-8.837,0-16-7.163-16-16v-16c0-8.837,7.163-16,16-16h352c8.837,0,16,7.163,16,16v16
			C448,256.837,440.837,264,432,264z"/>
	</g>
	<g>
		<rect y="128" style="fill:#5C546A;" width="512" height="56"/>
	</g>
</g>
<g>
</g>
<g>
</g>
<g>
</g>
<g>
</g>
<g>
</g>
<g>
</g>
<g>
</g>
<g>
</g>
<g>
</g>
<g>
</g>
<g>
</g>
<g>
</g>
<g>
</g>
<g>
</g>
<g>
</g>
</svg>
