<?xml version="1.0" standalone="no"?>
<!DOCTYPE svg PUBLIC "-//W3C//DTD SVG 20010904//EN"
 "http://www.w3.org/TR/2001/REC-SVG-20010904/DTD/svg10.dtd">
<svg version="1.0" xmlns="http://www.w3.org/2000/svg"
 width="600.000000pt" height="604.000000pt" viewBox="0 0 600.000000 604.000000"
 preserveAspectRatio="xMidYMid meet">

<g transform="translate(0.000000,604.000000) scale(0.100000,-0.100000)"
fill="grey" stroke="none">
<path d="M2905 6034 c-251 -39 -462 -231 -525 -480 -81 -315 108 -646 428
-749 l52 -17 -2 -412 -3 -411 -392 -228 -392 -229 -259 152 -259 152 8 42 c32
164 -24 339 -149 465 -110 110 -229 161 -378 161 -328 0 -589 -314 -523 -632
28 -136 133 -282 254 -353 190 -113 440 -100 602 31 23 19 47 34 55 33 7 0
126 -67 263 -148 l250 -148 0 -463 0 -462 -409 -239 c-224 -132 -413 -239
-418 -239 -6 0 -34 22 -64 49 -219 201 -557 212 -800 28 -97 -74 -165 -172
-210 -302 -23 -68 -27 -97 -28 -190 -1 -183 54 -315 184 -446 125 -126 272
-189 441 -189 108 0 169 15 277 66 73 35 107 59 165 117 83 83 147 195 172
298 16 70 19 213 6 271 -6 26 -5 40 3 46 15 13 811 470 840 483 21 10 65 -13
392 -204 l369 -215 3 -308 2 -309 -48 -17 c-156 -56 -294 -208 -338 -373 -19
-68 -17 -200 2 -266 58 -199 233 -355 436 -389 251 -43 512 120 589 369 29 96
28 228 -4 319 -48 139 -154 258 -285 320 l-72 34 2 316 3 315 365 213 c201
117 372 213 380 213 8 1 206 -111 440 -247 351 -205 424 -251 422 -267 -14
-86 -12 -237 2 -299 25 -107 89 -220 171 -301 159 -160 382 -221 600 -165 109
28 196 80 285 169 198 199 242 467 117 721 -82 168 -250 297 -437 336 -178 38
-389 -18 -524 -137 -30 -27 -59 -49 -64 -49 -10 0 -750 427 -824 476 l-38 24
0 429 c0 335 3 431 13 439 7 6 113 69 236 141 l223 131 41 -24 c152 -88 368
-89 532 -3 305 162 353 592 95 846 -103 101 -225 151 -371 151 -155 0 -278
-56 -391 -178 -139 -151 -172 -332 -102 -553 4 -11 -40 -42 -173 -119 -98 -57
-187 -109 -198 -116 -18 -12 -58 9 -410 214 l-390 227 -3 418 -2 419 22 6 c13
3 63 25 111 50 150 74 268 215 320 377 17 56 22 94 22 185 0 143 -21 213 -98
337 -73 118 -218 226 -357 267 -56 17 -202 28 -255 20z m240 -319 c112 -57
185 -174 186 -299 1 -74 -7 -106 -38 -169 -46 -93 -133 -156 -246 -178 -141
-29 -295 50 -365 186 -36 71 -43 197 -13 275 35 94 112 168 211 204 72 26 193
17 265 -19z m-1991 -1549 c86 -50 126 -119 126 -216 0 -98 -40 -166 -129 -218
-38 -22 -58 -27 -116 -27 -58 0 -78 5 -116 27 -54 32 -93 75 -114 125 -19 45
-19 141 0 186 27 66 92 125 163 148 48 15 138 3 186 -25z m3742 19 c61 -18
118 -64 145 -118 18 -34 21 -54 17 -116 -5 -87 -22 -125 -79 -181 -95 -92
-239 -91 -337 3 -54 52 -76 103 -76 177 0 74 22 125 76 177 70 67 157 87 254
58z m-1586 -661 c173 -96 319 -179 323 -183 4 -4 -138 -89 -317 -189 l-325
-182 -316 182 c-173 100 -312 185 -308 189 10 10 616 359 623 359 3 0 147 -79
320 -176z m458 -1150 c-19 -17 -607 -354 -618 -354 -7 0 -9 124 -8 352 l3 353
315 182 315 181 3 -351 c2 -273 -1 -354 -10 -363z m-1170 481 l262 -150 0
-342 c0 -199 -4 -343 -9 -343 -5 0 -148 80 -318 178 l-308 178 -3 347 -2 348
58 -33 c32 -18 176 -100 320 -183z m-1844 -1096 c113 -42 206 -161 221 -284
15 -115 -50 -255 -148 -320 -224 -148 -518 -6 -535 258 -2 40 1 90 7 112 28
104 121 206 220 238 67 23 169 21 235 -4z m4757 -8 c70 -34 122 -83 160 -153
32 -59 34 -69 34 -158 0 -84 -3 -102 -28 -151 -70 -144 -237 -223 -388 -184
-165 42 -264 170 -263 340 0 134 90 265 217 314 71 29 201 25 268 -8z m-2425
-966 c51 -21 110 -81 134 -137 68 -158 -54 -338 -231 -338 -143 0 -262 131
-246 271 9 77 44 131 120 189 50 37 152 44 223 15z"/>
</g>
</svg>
